HIERARCHY
ROOT Hips
{
    OFFSET 0.000000 0.000000 0.000000
    CHANNELS 6 Xposition Yposition Zposition Zrotation Xrotation Yrotation
    JOINT Spine
    {
        OFFSET 0.000005 10.316801 0.000003
        CHANNELS 3 Zrotation Xrotation Yrotation
        JOINT Spine1
        {
            OFFSET 0.000001 26.008713 -0.000000
            CHANNELS 3 Zrotation Xrotation Yrotation
            JOINT Neck
            {
                OFFSET -0.000003 24.799356 -0.000002
                CHANNELS 3 Zrotation Xrotation Yrotation
                JOINT Head
                {
                    OFFSET 0.000020 14.500551 2.035182
                    CHANNELS 3 Zrotation Xrotation Yrotation
                    End Site
                    {
                        OFFSET 0.000000 20.351660 0.000000
                    }
                }
            }
            JOINT LeftShoulder
            {
                OFFSET 4.036561 20.304798 -0.371914
                CHANNELS 3 Zrotation Xrotation Yrotation
                JOINT LeftArm
                {
                    OFFSET 12.502599 0.000005 -0.000001
                    CHANNELS 3 Zrotation Xrotation Yrotation
                    JOINT LeftForeArm
                    {
                        OFFSET 31.806910 0.000001 -0.000001
                        CHANNELS 3 Zrotation Xrotation Yrotation
                        JOINT LeftHand
                        {
                            OFFSET 24.843203 -0.000000 -0.000007
                            CHANNELS 3 Zrotation Xrotation Yrotation
                            JOINT LeftHandThumb1
                            {
                                OFFSET 2.126742 -2.416762 3.383460
                                CHANNELS 3 Zrotation Xrotation Yrotation
                                JOINT LeftHandThumb2
                                {
                                    OFFSET 3.212131 -0.000002 -0.000001
                                    CHANNELS 3 Zrotation Xrotation Yrotation
                                    JOINT LeftHandThumb3
                                    {
                                        OFFSET 2.745434 -0.000004 0.000001
                                        CHANNELS 3 Zrotation Xrotation Yrotation
                                        End Site
                                        {
                                            OFFSET 2.793713 0.000000 0.000000
                                        }
                                    }
                                }
                            }
                            JOINT LeftHandIndex1
                            {
                                OFFSET 8.700332 -0.000004 3.383458
                                CHANNELS 3 Zrotation Xrotation Yrotation
                                JOINT LeftHandIndex2
                                {
                                    OFFSET 4.833528 -0.000004 -0.000002
                                    CHANNELS 3 Zrotation Xrotation Yrotation
                                    JOINT LeftHandIndex3
                                    {
                                        OFFSET 2.416752 -0.000002 0.000000
                                        CHANNELS 3 Zrotation Xrotation Yrotation
                                        End Site
                                        {
                                            OFFSET 2.459254 0.000000 0.000000
                                        }
                                    }
                                }
                            }
                            JOINT LeftHandMiddle1
                            {
                                OFFSET 8.700323 0.000003 1.121382
                                CHANNELS 3 Zrotation Xrotation Yrotation
                                JOINT LeftHandMiddle2
                                {
                                    OFFSET 5.316860 -0.000001 -0.000002
                                    CHANNELS 3 Zrotation Xrotation Yrotation
                                    JOINT LeftHandMiddle3
                                    {
                                        OFFSET 2.900108 -0.000000 0.000000
                                        CHANNELS 3 Zrotation Xrotation Yrotation
                                        End Site
                                        {
                                            OFFSET 2.951103 0.000000 0.000000
                                        }
                                    }
                                }
                            }
                            JOINT LeftHandRing1
                            {
                                OFFSET 8.216992 0.000004 -1.121380
                                CHANNELS 3 Zrotation Xrotation Yrotation
                                JOINT LeftHandRing2
                                {
                                    OFFSET 4.833528 -0.000004 -0.000004
                                    CHANNELS 3 Zrotation Xrotation Yrotation
                                    JOINT LeftHandRing3
                                    {
                                        OFFSET 2.416752 -0.000002 -0.000001
                                        CHANNELS 3 Zrotation Xrotation Yrotation
                                        End Site
                                        {
                                            OFFSET 2.459254 0.000000 0.000000
                                        }
                                    }
                                }
                            }
                            JOINT LeftHandPinky1
                            {
                                OFFSET 7.733627 -0.000001 -3.383464
                                CHANNELS 3 Zrotation Xrotation Yrotation
                                JOINT LeftHandPinky2
                                {
                                    OFFSET 3.866818 0.000003 0.000001
                                    CHANNELS 3 Zrotation Xrotation Yrotation
                                    JOINT LeftHandPinky3
                                    {
                                        OFFSET 1.933421 -0.000004 -0.000004
                                        CHANNELS 3 Zrotation Xrotation Yrotation
                                        End Site
                                        {
                                            OFFSET 1.967405 0.000000 0.000000
                                        }
                                    }
                                }
                            }
                        }
                    }
                }
            }
            JOINT RightShoulder
            {
                OFFSET -4.036570 20.304804 -0.371909
                CHANNELS 3 Zrotation Xrotation Yrotation
                JOINT RightArm
                {
                    OFFSET -12.502611 -0.000002 -0.000006
                    CHANNELS 3 Zrotation Xrotation Yrotation
                    JOINT RightForeArm
                    {
                        OFFSET -31.806902 0.000000 -0.000005
                        CHANNELS 3 Zrotation Xrotation Yrotation
                        JOINT RightHand
                        {
                            OFFSET -24.843195 0.000003 -0.000004
                            CHANNELS 3 Zrotation Xrotation Yrotation
                            JOINT RightHandThumb1
                            {
                                OFFSET -2.126753 -2.416759 3.383456
                                CHANNELS 3 Zrotation Xrotation Yrotation
                                JOINT RightHandThumb2
                                {
                                    OFFSET -3.212128 -0.000001 0.000004
                                    CHANNELS 3 Zrotation Xrotation Yrotation
                                    JOINT RightHandThumb3
                                    {
                                        OFFSET -2.745447 -0.000007 -0.000007
                                        CHANNELS 3 Zrotation Xrotation Yrotation
                                        End Site
                                        {
                                            OFFSET -2.793713 0.000000 0.000000
                                        }
                                    }
                                }
                            }
                            JOINT RightHandIndex1
                            {
                                OFFSET -8.700329 -0.000002 3.383458
                                CHANNELS 3 Zrotation Xrotation Yrotation
                                JOINT RightHandIndex2
                                {
                                    OFFSET -4.833517 -0.000003 -0.000001
                                    CHANNELS 3 Zrotation Xrotation Yrotation
                                    JOINT RightHandIndex3
                                    {
                                        OFFSET -2.416758 -0.000002 -0.000001
                                        CHANNELS 3 Zrotation Xrotation Yrotation
                                        End Site
                                        {
                                            OFFSET -2.459254 0.000000 0.000000
                                        }
                                    }
                                }
                            }
                            JOINT RightHandMiddle1
                            {
                                OFFSET -8.700332 0.000004 1.121380
                                CHANNELS 3 Zrotation Xrotation Yrotation
                                JOINT RightHandMiddle2
                                {
                                    OFFSET -5.316864 -0.000003 0.000007
                                    CHANNELS 3 Zrotation Xrotation Yrotation
                                    JOINT RightHandMiddle3
                                    {
                                        OFFSET -2.900104 0.000000 0.000006
                                        CHANNELS 3 Zrotation Xrotation Yrotation
                                        End Site
                                        {
                                            OFFSET -2.951103 0.000000 0.000000
                                        }
                                    }
                                }
                            }
                            JOINT RightHandRing1
                            {
                                OFFSET -8.216980 -0.000005 -1.121383
                                CHANNELS 3 Zrotation Xrotation Yrotation
                                JOINT RightHandRing2
                                {
                                    OFFSET -4.833517 -0.000003 -0.000001
                                    CHANNELS 3 Zrotation Xrotation Yrotation
                                    JOINT RightHandRing3
                                    {
                                        OFFSET -2.416758 -0.000002 -0.000001
                                        CHANNELS 3 Zrotation Xrotation Yrotation
                                        End Site
                                        {
                                            OFFSET -2.459254 0.000000 0.000000
                                        }
                                    }
                                }
                            }
                            JOINT RightHandPinky1
                            {
                                OFFSET -7.733637 0.000001 -3.383470
                                CHANNELS 3 Zrotation Xrotation Yrotation
                                JOINT RightHandPinky2
                                {
                                    OFFSET -3.866809 -0.000001 0.000001
                                    CHANNELS 3 Zrotation Xrotation Yrotation
                                    JOINT RightHandPinky3
                                    {
                                        OFFSET -1.933413 -0.000002 -0.000008
                                        CHANNELS 3 Zrotation Xrotation Yrotation
                                        End Site
                                        {
                                            OFFSET -1.967405 0.000000 0.000000
                                        }
                                    }
                                }
                            }
                        }
                    }
                }
            }
        }
    }
    JOINT LeftUpLeg
    {
        OFFSET 10.175808 -0.000002 0.000006
        CHANNELS 3 Zrotation Xrotation Yrotation
        JOINT LeftLeg
        {
            OFFSET -0.000002 -42.882900 -0.000002
            CHANNELS 3 Zrotation Xrotation Yrotation
            JOINT LeftFoot
            {
                OFFSET -0.000004 -39.006802 -0.000003
                CHANNELS 3 Zrotation Xrotation Yrotation
                JOINT LeftToeBase
                {
                    OFFSET 0.000001 -6.614292 15.263705
                    CHANNELS 3 Zrotation Xrotation Yrotation
                    End Site
                    {
                        OFFSET 0.000000 0.000000 4.070332
                    }
                }
            }
        }
    }
    JOINT RightUpLeg
    {
        OFFSET -10.175808 0.000002 -0.000006
        CHANNELS 3 Zrotation Xrotation Yrotation
        JOINT RightLeg
        {
            OFFSET -0.000002 -42.882900 -0.000002
            CHANNELS 3 Zrotation Xrotation Yrotation
            JOINT RightFoot
            {
                OFFSET -0.000003 -39.006798 -0.000001
                CHANNELS 3 Zrotation Xrotation Yrotation
                JOINT RightToeBase
                {
                    OFFSET -0.000006 -6.614290 15.263698
                    CHANNELS 3 Zrotation Xrotation Yrotation
                    End Site
                    {
                        OFFSET 0.000000 0.000000 4.070332
                    }
                }
            }
        }
    }
}
MOTION
Frames:    4
Frame Time:    0.002778
27.204269    90.397972    214.055878    1.945310    1.935931    -14.465516    0.252360    5.912430    3.749222    1.261799    5.911065    3.645250    5.661506    7.165513    -1.337377    5.661501    7.165506    -1.337374    -5.239880    -1.082034    -0.652834    -44.078106    24.691633    -34.115528    -10.178599    -3.886525    -142.286713    -7.315144    -0.925596    6.921022    47.448200    38.866413    -34.355049    -35.000015    0.000001    -0.000002    -0.000000    0.000000    -0.000000    -0.000007    9.999999    0.000002    -0.000000    0.000000    -0.000000    -0.000000    0.000000    -0.000000    -0.000000    0.000000    -0.000000    -0.000000    0.000000    -0.000000    -0.000000    0.000000    -0.000000    -0.000000    0.000000    -0.000000    -0.000000    0.000000    -0.000000    -0.000000    0.000000    -0.000000    -0.000000    -9.999995    -0.000002    -0.000000    0.000000    -0.000000    -0.000000    0.000000    -0.000000    -4.200153    -2.941011    5.874492    38.538994    -9.410258    54.625015    -28.949713    -11.255544    75.897163    3.064771    -2.441960    -42.393028    -47.448204    38.866413    34.355038    35.000023    0.000001    0.000001    -0.000000    0.000000    -0.000000    0.000001    9.999997    -0.000007    -0.000000    0.000000    -0.000000    -0.000000    0.000000    -0.000000    -0.000000    0.000000    -0.000000    -0.000000    0.000000    -0.000000    -0.000000    0.000000    -0.000000    -0.000000    0.000000    -0.000000    -0.000000    0.000000    -0.000000    -0.000000    0.000000    -0.000000    -0.000005    -9.999990    -0.000014    -0.000000    0.000000    -0.000000    -0.000000    0.000000    -0.000000    8.211061    -20.730791    -0.861485    -0.000003    42.277367    0.000003    -15.660939    -25.770540    -9.681009    0.000001    -0.150943    0.000000    -19.956470    -13.258527    -1.217396    0.000000    32.093842    -0.000000    18.830120    -20.042068    -20.279808    -0.000000    2.401499    0.000014    
27.178442    90.374718    214.043839    1.924334    1.924590    -14.312478    0.249152    5.925764    3.736087    1.245761    5.924430    3.633204    5.657608    7.157801    -1.340424    5.657608    7.157800    -1.340424    -5.255563    -1.069523    -0.662267    -44.140068    24.686426    -34.016872    -10.164675    -3.901563    -142.212112    -7.383722    -0.930448    6.894047    47.448204    38.866394    -34.355042    -35.000027    0.000000    -0.000001    -0.000000    0.000000    -0.000000    0.000007    9.999988    -0.000004    -0.000000    0.000000    -0.000000    -0.000000    0.000000    -0.000000    -0.000000    0.000000    -0.000000    -0.000000    0.000000    -0.000000    -0.000000    0.000000    -0.000000    -0.000000    0.000000    -0.000000    -0.000000    0.000000    -0.000000    -0.000000    0.000000    -0.000000    0.000003    -9.999990    -0.000001    -0.000000    0.000000    -0.000000    -0.000000    0.000000    -0.000000    -4.178750    -2.924732    5.864750    38.522865    -9.393356    54.594254    -28.889174    -11.365807    75.997009    3.045678    -2.418807    -42.324173    -47.448196    38.866394    34.355038    35.000015    -0.000001    0.000012    -0.000000    0.000000    -0.000000    -0.000001    9.999994    -0.000005    -0.000000    0.000000    -0.000000    -0.000000    0.000000    -0.000000    -0.000000    0.000000    -0.000000    -0.000000    0.000000    -0.000000    -0.000000    0.000000    -0.000000    -0.000000    0.000000    -0.000000    -0.000000    0.000000    -0.000000    -0.000000    0.000000    -0.000000    0.000004    -9.999992    0.000012    -0.000000    0.000000    -0.000000    -0.000000    0.000000    -0.000000    8.242895    -20.794329    -0.875773    -0.000002    42.351536    0.000001    -15.689937    -25.759819    -9.822985    0.000000    -0.155163    -0.000000    -19.933697    -13.249229    -1.241765    -0.000001    32.248951    -0.000002    18.854006    -20.161076    -20.349461    -0.000000    2.395499    -0.000004    
27.153223    90.349213    214.031082    1.904318    1.911260    -14.165310    0.246397    5.939114    3.725816    1.231981    5.937804    3.623846    5.652989    7.150046    -1.338331    5.652992    7.150047    -1.338330    -5.272283    -1.054205    -0.670952    -44.199570    24.688189    -33.919785    -10.162841    -3.913035    -142.138672    -7.447747    -0.934785    6.867084    47.448215    38.866405    -34.355049    -35.000023    -0.000001    -0.000003    -0.000000    0.000000    -0.000000    -0.000007    9.999998    0.000002    -0.000000    0.000000    -0.000000    -0.000000    0.000000    -0.000000    -0.000000    0.000000    -0.000000    -0.000000    0.000000    -0.000000    -0.000000    0.000000    -0.000000    -0.000000    0.000000    -0.000000    -0.000000    0.000000    -0.000000    -0.000000    0.000000    -0.000000    0.000000    -9.999991    0.000000    -0.000000    0.000000    -0.000000    -0.000000    0.000000    -0.000000    -4.160292    -2.905809    5.858258    38.509640    -9.376572    54.556519    -28.836882    -11.465549    76.102692    3.025869    -2.395387    -42.260174    -47.448208    38.866402    34.355053    35.000023    -0.000001    0.000002    -0.000000    0.000000    -0.000000    0.000000    9.999993    0.000015    -0.000000    0.000000    -0.000000    -0.000000    0.000000    -0.000000    -0.000000    0.000000    -0.000000    -0.000000    0.000000    -0.000000    -0.000000    0.000000    -0.000000    -0.000000    0.000000    -0.000000    -0.000000    0.000000    -0.000000    -0.000000    0.000000    -0.000000    -0.000002    -9.999992    0.000002    -0.000000    0.000000    -0.000000    -0.000000    0.000000    -0.000000    8.274050    -20.858410    -0.889099    -0.000002    42.432320    0.000002    -15.718036    -25.754894    -9.963624    -0.000001    -0.157131    -0.000004    -19.910479    -13.244799    -1.260839    0.000001    32.409657    -0.000005    18.864468    -20.280392    -20.417511    0.000000    2.386949    -0.000001    
27.125866    90.321663    214.019348    1.883261    1.895781    -14.017926    0.242954    5.952797    3.713391    1.214768    5.951523    3.612614    5.652992    7.139493    -1.333681    5.652996    7.139495    -1.333679    -5.294749    -1.042581    -0.687849    -44.256882    24.678650    -33.820663    -10.161451    -3.915941    -142.067963    -7.509696    -0.939122    6.842052    47.448212    38.866402    -34.355045    -35.000031    -0.000001    -0.000002    -0.000000    0.000000    -0.000000    -0.000000    9.999991    0.000003    -0.000000    0.000000    -0.000000    -0.000000    0.000000    -0.000000    -0.000000    0.000000    -0.000000    -0.000000    0.000000    -0.000000    -0.000000    0.000000    -0.000000    -0.000000    0.000000    -0.000000    -0.000000    0.000000    -0.000000    -0.000000    0.000000    -0.000000    -0.000003    -9.999988    -0.000000    -0.000000    0.000000    -0.000000    -0.000000    0.000000    -0.000000    -4.139828    -2.889606    5.855805    38.505970    -9.367850    54.516224    -28.791990    -11.561726    76.206955    3.021393    -2.383985    -42.175091    -47.448212    38.866402    34.355061    35.000015    -0.000002    0.000004    -0.000000    0.000000    -0.000000    0.000002    9.999996    0.000002    -0.000000    0.000000    -0.000000    -0.000000    0.000000    -0.000000    -0.000000    0.000000    -0.000000    -0.000000    0.000000    -0.000000    -0.000000    0.000000    -0.000000    -0.000000    0.000000    -0.000000    -0.000000    0.000000    -0.000000    -0.000000    0.000000    -0.000000    0.000000    -9.999996    0.000001    -0.000000    0.000000    -0.000000    -0.000000    0.000000    -0.000000    8.306030    -20.923643    -0.905246    -0.000000    42.520199    0.000002    -15.747665    -25.750353    -10.104651    0.000000    -0.163497    0.000002    -19.887724    -13.244494    -1.284858    -0.000000    32.586227    0.000001    18.878439    -20.401897    -20.477528    0.000000    2.384654    -0.000004    
